<mxfile host="app.diagrams.net" modified="2024-07-13T03:48:23.006Z" agent="Mozilla/5.0 (Windows NT 10.0; Win64; x64) AppleWebKit/537.36 (KHTML, like Gecko) Chrome/126.0.0.0 Safari/537.36" etag="1YkkhaoMgRPuqZwr_Mjz" version="24.6.5" type="google">
  <diagram name="Page-1" id="cCfymfVNyX_k8D3t8lt3">
    <mxGraphModel grid="1" page="1" gridSize="10" guides="1" tooltips="1" connect="1" arrows="1" fold="1" pageScale="1" pageWidth="850" pageHeight="1100" math="0" shadow="0">
      <root>
        <mxCell id="0" />
        <mxCell id="1" parent="0" />
        <mxCell id="0X5VZcKtUHKiasIcCc4Q-27" value="" style="rounded=0;whiteSpace=wrap;html=1;" vertex="1" parent="1">
          <mxGeometry x="60" y="20" width="800" height="480" as="geometry" />
        </mxCell>
        <mxCell id="0X5VZcKtUHKiasIcCc4Q-13" style="edgeStyle=orthogonalEdgeStyle;rounded=0;orthogonalLoop=1;jettySize=auto;html=1;exitX=1;exitY=0.5;exitDx=0;exitDy=0;entryX=0;entryY=0.5;entryDx=0;entryDy=0;fontFamily=Times New Roman;" edge="1" parent="1" source="0X5VZcKtUHKiasIcCc4Q-1" target="0X5VZcKtUHKiasIcCc4Q-2">
          <mxGeometry relative="1" as="geometry" />
        </mxCell>
        <mxCell id="0X5VZcKtUHKiasIcCc4Q-1" value="Preprocess Data" style="rounded=1;whiteSpace=wrap;html=1;fontFamily=Times New Roman;" vertex="1" parent="1">
          <mxGeometry x="80" y="200" width="120" height="40" as="geometry" />
        </mxCell>
        <mxCell id="0X5VZcKtUHKiasIcCc4Q-14" style="edgeStyle=orthogonalEdgeStyle;rounded=0;orthogonalLoop=1;jettySize=auto;html=1;exitX=1;exitY=0.5;exitDx=0;exitDy=0;entryX=0;entryY=0.5;entryDx=0;entryDy=0;fontFamily=Times New Roman;" edge="1" parent="1" source="0X5VZcKtUHKiasIcCc4Q-2" target="0X5VZcKtUHKiasIcCc4Q-5">
          <mxGeometry relative="1" as="geometry" />
        </mxCell>
        <mxCell id="0X5VZcKtUHKiasIcCc4Q-15" style="edgeStyle=orthogonalEdgeStyle;rounded=0;orthogonalLoop=1;jettySize=auto;html=1;exitX=1;exitY=0.5;exitDx=0;exitDy=0;entryX=0;entryY=0.5;entryDx=0;entryDy=0;fontFamily=Times New Roman;" edge="1" parent="1" source="0X5VZcKtUHKiasIcCc4Q-2" target="0X5VZcKtUHKiasIcCc4Q-6">
          <mxGeometry relative="1" as="geometry" />
        </mxCell>
        <mxCell id="0X5VZcKtUHKiasIcCc4Q-16" style="edgeStyle=orthogonalEdgeStyle;rounded=0;orthogonalLoop=1;jettySize=auto;html=1;exitX=1;exitY=0.5;exitDx=0;exitDy=0;entryX=0;entryY=0.5;entryDx=0;entryDy=0;fontFamily=Times New Roman;" edge="1" parent="1" source="0X5VZcKtUHKiasIcCc4Q-2" target="0X5VZcKtUHKiasIcCc4Q-4">
          <mxGeometry relative="1" as="geometry" />
        </mxCell>
        <mxCell id="0X5VZcKtUHKiasIcCc4Q-17" style="edgeStyle=orthogonalEdgeStyle;rounded=0;orthogonalLoop=1;jettySize=auto;html=1;exitX=1;exitY=0.5;exitDx=0;exitDy=0;entryX=0;entryY=0.5;entryDx=0;entryDy=0;fontFamily=Times New Roman;" edge="1" parent="1" source="0X5VZcKtUHKiasIcCc4Q-2" target="0X5VZcKtUHKiasIcCc4Q-3">
          <mxGeometry relative="1" as="geometry" />
        </mxCell>
        <mxCell id="0X5VZcKtUHKiasIcCc4Q-18" style="edgeStyle=orthogonalEdgeStyle;rounded=0;orthogonalLoop=1;jettySize=auto;html=1;exitX=1;exitY=0.5;exitDx=0;exitDy=0;entryX=0;entryY=0.5;entryDx=0;entryDy=0;fontFamily=Times New Roman;" edge="1" parent="1" source="0X5VZcKtUHKiasIcCc4Q-2" target="0X5VZcKtUHKiasIcCc4Q-11">
          <mxGeometry relative="1" as="geometry" />
        </mxCell>
        <mxCell id="0X5VZcKtUHKiasIcCc4Q-19" style="edgeStyle=orthogonalEdgeStyle;rounded=0;orthogonalLoop=1;jettySize=auto;html=1;exitX=1;exitY=0.5;exitDx=0;exitDy=0;entryX=0;entryY=0.5;entryDx=0;entryDy=0;fontFamily=Times New Roman;" edge="1" parent="1" source="0X5VZcKtUHKiasIcCc4Q-2" target="0X5VZcKtUHKiasIcCc4Q-12">
          <mxGeometry relative="1" as="geometry" />
        </mxCell>
        <mxCell id="0X5VZcKtUHKiasIcCc4Q-2" value="Training" style="rounded=1;whiteSpace=wrap;html=1;fontFamily=Times New Roman;" vertex="1" parent="1">
          <mxGeometry x="240" y="200" width="120" height="40" as="geometry" />
        </mxCell>
        <mxCell id="0X5VZcKtUHKiasIcCc4Q-23" style="edgeStyle=orthogonalEdgeStyle;rounded=0;orthogonalLoop=1;jettySize=auto;html=1;exitX=1;exitY=0.5;exitDx=0;exitDy=0;entryX=0;entryY=0.5;entryDx=0;entryDy=0;fontFamily=Times New Roman;" edge="1" parent="1" source="0X5VZcKtUHKiasIcCc4Q-3" target="0X5VZcKtUHKiasIcCc4Q-8">
          <mxGeometry relative="1" as="geometry" />
        </mxCell>
        <mxCell id="0X5VZcKtUHKiasIcCc4Q-3" value="Support Vector Machine" style="rounded=1;whiteSpace=wrap;html=1;fontFamily=Times New Roman;" vertex="1" parent="1">
          <mxGeometry x="400" y="280" width="120" height="40" as="geometry" />
        </mxCell>
        <mxCell id="0X5VZcKtUHKiasIcCc4Q-21" style="edgeStyle=orthogonalEdgeStyle;rounded=0;orthogonalLoop=1;jettySize=auto;html=1;exitX=1;exitY=0.5;exitDx=0;exitDy=0;entryX=0;entryY=0.5;entryDx=0;entryDy=0;fontFamily=Times New Roman;" edge="1" parent="1" source="0X5VZcKtUHKiasIcCc4Q-4" target="0X5VZcKtUHKiasIcCc4Q-8">
          <mxGeometry relative="1" as="geometry" />
        </mxCell>
        <mxCell id="0X5VZcKtUHKiasIcCc4Q-4" value="K Nearest Neighbor" style="rounded=1;whiteSpace=wrap;html=1;fontFamily=Times New Roman;" vertex="1" parent="1">
          <mxGeometry x="400" y="120" width="120" height="40" as="geometry" />
        </mxCell>
        <mxCell id="0X5VZcKtUHKiasIcCc4Q-22" style="edgeStyle=orthogonalEdgeStyle;rounded=0;orthogonalLoop=1;jettySize=auto;html=1;exitX=1;exitY=0.5;exitDx=0;exitDy=0;entryX=0;entryY=0.5;entryDx=0;entryDy=0;fontFamily=Times New Roman;" edge="1" parent="1" source="0X5VZcKtUHKiasIcCc4Q-5" target="0X5VZcKtUHKiasIcCc4Q-8">
          <mxGeometry relative="1" as="geometry" />
        </mxCell>
        <mxCell id="0X5VZcKtUHKiasIcCc4Q-5" value="Naive Bayes" style="rounded=1;whiteSpace=wrap;html=1;fontFamily=Times New Roman;" vertex="1" parent="1">
          <mxGeometry x="400" y="200" width="120" height="40" as="geometry" />
        </mxCell>
        <mxCell id="0X5VZcKtUHKiasIcCc4Q-20" style="edgeStyle=orthogonalEdgeStyle;rounded=0;orthogonalLoop=1;jettySize=auto;html=1;exitX=1;exitY=0.5;exitDx=0;exitDy=0;entryX=0;entryY=0.5;entryDx=0;entryDy=0;fontFamily=Times New Roman;" edge="1" parent="1" source="0X5VZcKtUHKiasIcCc4Q-6" target="0X5VZcKtUHKiasIcCc4Q-8">
          <mxGeometry relative="1" as="geometry" />
        </mxCell>
        <mxCell id="0X5VZcKtUHKiasIcCc4Q-6" value="Logistic Regression" style="rounded=1;whiteSpace=wrap;html=1;fontFamily=Times New Roman;" vertex="1" parent="1">
          <mxGeometry x="400" y="40" width="120" height="40" as="geometry" />
        </mxCell>
        <mxCell id="0X5VZcKtUHKiasIcCc4Q-26" style="edgeStyle=orthogonalEdgeStyle;rounded=0;orthogonalLoop=1;jettySize=auto;html=1;exitX=1;exitY=0.5;exitDx=0;exitDy=0;entryX=0;entryY=0.5;entryDx=0;entryDy=0;fontFamily=Times New Roman;" edge="1" parent="1" source="0X5VZcKtUHKiasIcCc4Q-8" target="0X5VZcKtUHKiasIcCc4Q-9">
          <mxGeometry relative="1" as="geometry" />
        </mxCell>
        <mxCell id="0X5VZcKtUHKiasIcCc4Q-8" value="Ensemble Model" style="rounded=1;whiteSpace=wrap;html=1;fontFamily=Times New Roman;" vertex="1" parent="1">
          <mxGeometry x="560" y="200" width="120" height="40" as="geometry" />
        </mxCell>
        <mxCell id="0X5VZcKtUHKiasIcCc4Q-9" value="Display Predictions" style="rounded=1;whiteSpace=wrap;html=1;fontFamily=Times New Roman;" vertex="1" parent="1">
          <mxGeometry x="720" y="200" width="120" height="40" as="geometry" />
        </mxCell>
        <mxCell id="0X5VZcKtUHKiasIcCc4Q-24" style="edgeStyle=orthogonalEdgeStyle;rounded=0;orthogonalLoop=1;jettySize=auto;html=1;exitX=1;exitY=0.5;exitDx=0;exitDy=0;entryX=0;entryY=0.5;entryDx=0;entryDy=0;fontFamily=Times New Roman;" edge="1" parent="1" source="0X5VZcKtUHKiasIcCc4Q-11" target="0X5VZcKtUHKiasIcCc4Q-8">
          <mxGeometry relative="1" as="geometry" />
        </mxCell>
        <mxCell id="0X5VZcKtUHKiasIcCc4Q-11" value="Decision Tree" style="rounded=1;whiteSpace=wrap;html=1;fontFamily=Times New Roman;" vertex="1" parent="1">
          <mxGeometry x="400" y="360" width="120" height="40" as="geometry" />
        </mxCell>
        <mxCell id="0X5VZcKtUHKiasIcCc4Q-25" style="edgeStyle=orthogonalEdgeStyle;rounded=0;orthogonalLoop=1;jettySize=auto;html=1;exitX=1;exitY=0.5;exitDx=0;exitDy=0;entryX=0;entryY=0.5;entryDx=0;entryDy=0;fontFamily=Times New Roman;" edge="1" parent="1" source="0X5VZcKtUHKiasIcCc4Q-12" target="0X5VZcKtUHKiasIcCc4Q-8">
          <mxGeometry relative="1" as="geometry" />
        </mxCell>
        <mxCell id="0X5VZcKtUHKiasIcCc4Q-12" value="Artificial Neural Network" style="rounded=1;whiteSpace=wrap;html=1;fontFamily=Times New Roman;" vertex="1" parent="1">
          <mxGeometry x="400" y="440" width="120" height="40" as="geometry" />
        </mxCell>
      </root>
    </mxGraphModel>
  </diagram>
</mxfile>
